<?xml version="1.0"?>
<svg width="500" height="400" xmlns="http://www.w3.org/2000/svg">
 <g>
  <path fill="#c61436" d="m72.306999,66.163002c0.174004,-0.234001 3.874001,-11.738003 11.875,-20.455002c8.382004,-9.131001 21.095001,-15.455 21.883003,-13.951c0.992996,1.896 -8.726006,3.313 -16.844002,15.631001c-3.365997,5.106998 -5.476997,11.563999 -5.692001,17.264999c0,0 0.747002,3.078995 1.260002,3.220001c0.513,0.139999 1.562996,-0.018005 1.865997,-0.561005c0.303001,-0.541992 -3.452995,-7.791996 10.684998,-18.663998c12.333,-9.482998 30.889008,-12.620998 31.261993,-12.025997c0.207001,0.329998 -9.294991,5.423 -16.610992,10.859997c-5.884995,4.374001 -9.962997,9.263 -9.424995,9.846001c1.207001,1.306 53.377998,-15.200001 54.101997,-14.301998s-17.007004,7.139 -18.406998,18.406998c-0.800003,6.440002 8.936005,5.996002 22.746994,6.929001c13.812012,0.934006 26.258011,1.844002 26.292999,2.542999c0.035004,0.699997 -16.750992,3.686996 -19.503998,10.125c-2.752991,6.439003 -0.513,12.084999 4.246002,13.578003c4.759003,1.492996 28.229004,4.316002 28.438995,3.709999s-8.166,-5.878998 -8.397995,-6.93c-0.233002,-1.050003 10.498001,-6.858002 15.748001,-9.028c5.248993,-2.169998 12.830994,-4.619003 12.947998,-5.668999c0.117004,-1.050003 -2.729004,-3.920006 -6.789001,-6.789001c-4.05899,-2.868996 -8.888992,-4.129005 -8.748993,-5.459c0.139999,-1.330002 19.479996,-5.016003 44.302994,-8.679001c10.498001,-1.68 21.486008,-4.688999 36.044998,-6.438999c14.558014,-1.749001 30.86499,-3.919003 43.113007,-2.449001c12.247986,1.470001 29.464996,4.758999 43.321991,11.968002c13.856995,7.209 31.916016,21.976997 34.436005,24.566002c2.519012,2.588997 5.528992,4.759995 4.687988,6.019997c-0.839996,1.260002 -25.195984,-0.699997 -37.513977,10.778c-12.318024,11.477997 -15.468018,15.747002 -16.378021,24.005997c-0.908997,8.258995 -0.069,13.928001 1.75,18.196999c1.820007,4.270004 5.180023,9.869003 4.339996,11.059006c-0.839996,1.190002 -21.065979,-4.130005 -26.10498,4.970001c-5.039001,9.097992 -2.031006,17.916992 -0.561005,21.835999c1.470001,3.919998 4.970001,7.453995 4.339996,8.399002c-0.630005,0.944 -12.527008,-2.007004 -22.187988,3.638992c-9.65802,5.646011 -14.882996,10.404999 -14.977997,11.479004c-0.094025,1.074005 7.604004,2.473007 11.523987,2.985001s9.472992,1.072998 12.179016,1.072998s8.957977,-1.912994 9.518982,-0.886993c0.562012,1.024994 -9.145996,6.671997 -10.264984,13.998001c-1.120026,7.325989 -1.399017,10.403992 0.605988,14.32399s4.385986,9.846008 10.450989,9.42601c6.06601,-0.419998 11.38501,-1.588013 13.531006,-1.820007s4.666016,-1.727005 5.600006,-1.212997s0.652008,0.604996 0.187012,1.259995c-0.46701,0.652008 -8.493011,4.666 -10.684998,7.934006c-2.193024,3.266006 -5.319,9.843979 -4.854004,12.783005c0.46698,2.938995 3.686005,6.019989 8.911987,3.453003s6.252014,-4.525024 4.945007,2.332977c-1.304993,6.858002 1.354004,10.452026 7.746002,9.005005c6.393982,-1.444977 13.811981,-3.358978 19.36499,-13.15799c5.553009,-9.796997 6.671997,-17.496002 7.278015,-26.361008s-2.660004,-19.829987 -7.373016,-30.607986c-4.712006,-10.778 -7.09201,-27.902008 -7.277985,-33.035004c-0.188019,-5.133011 -0.233002,-20.25 4.10498,-29.535004c4.33902,-9.286011 11.432007,-20.017998 17.917023,-25.290001s19.409973,-12.178001 20.482971,-13.530998c1.072021,-1.353004 4.713013,-5.646004 3.125,-9.938004c-1.585999,-4.292999 -3.824982,-4.478996 -5.270996,-6.112c-1.444977,-1.632996 -1.97998,-2.603996 -2.005981,-3.359001c-0.024994,-0.755997 5.832001,-4.432999 10.824005,-5.925995c4.993988,-1.493004 19.970978,-2.752998 26.78299,-1.026001c6.812012,1.725998 19.738007,2.752998 22.350006,5.085999c2.612976,2.333 4.43399,8.632004 0,16.424004c-4.432007,7.792 -7.744019,17.029999 -9.098022,19.409996c-1.353973,2.379997 -6.437988,11.431999 -8.212982,13.577995c-1.77301,2.146011 -5.459015,5.92601 -6.110992,6.065002c-0.652008,0.141006 -3.03302,0.934006 -3.5,-1.166c-0.46701,-2.100006 -3.219025,-11.945007 -5.318024,-15.257996c-2.10199,-3.312004 -6.905975,-7.418999 -8.679993,-8.025002s-11.244995,5.973 -12.878998,8.398003c-1.632996,2.427002 -8.070984,16.283997 -9.003998,19.177002c-0.93399,2.893997 -3.639008,16.610992 -2.894012,22.069992c0.746002,5.459 4.806,18.337997 6.812012,23.376999c2.006989,5.039001 10.125,20.529007 11.385986,23.936005s6.952026,21.791 6.999023,23.843994c0.046997,2.054001 2.052979,19.690018 0.60498,26.035995s-5.411987,20.018005 -6.718994,22.630005c-1.306,2.613007 -10.777008,18.244019 -13.390991,21.369995s-11.571014,12.600006 -18.479004,16.330017c-6.903992,3.731995 -16.75,7.93399 -20.996002,9.519989s-32.195007,3.5 -39.708984,3.174011c-7.512024,-0.328003 -28.647003,-1.588013 -34.994019,-2.707001s-11.89801,-1.39801 -12.270996,-0.886993c-0.373993,0.513977 -0.231995,7.792999 -5.085999,10.218994s-13.764008,4.618988 -17.963989,6.110992c-4.199005,1.493988 -16.657013,3.312012 -20.20401,4.014008c-3.546005,0.699005 -19.270996,3.96698 -21.462997,4.759979c-2.192001,0.792999 -11.887009,2.014008 -12.365005,1.959015c-0.479004,-0.053009 -2.705994,2.286987 -4.619003,2.985992c-1.912994,0.699005 -6.251999,0.46701 -6.718994,-0.561005c-0.466003,-1.024994 -1.037994,-1.024994 -1.248001,-0.98999s-1.128006,1.354004 -1.434998,1.330017c-0.306,-0.027008 -0.708008,-0.736023 -1.119995,-0.771027c-0.411011,-0.035004 -2.729004,2.13501 -3.185013,2.344025c-0.455002,0.210999 -0.638992,0.122986 -0.909988,0c-0.271011,-0.121002 -0.481003,-1.318024 -0.525009,-1.504028c-0.043991,-0.18399 0.630005,-2.554993 1.050003,-3.161987c0.419998,-0.605011 -0.932999,-1.213013 -0.326996,-1.86499s-0.279999,-6.205017 0.233002,-10.218994c0.513,-4.014008 4.945999,-7.277008 6.858994,-7.840027c1.912994,-0.55899 6.018997,-1.585999 6.486008,-1.817993c0.465988,-0.231995 4.478989,-2.192993 5.271988,-2.893005c0.792999,-0.700989 6.391998,-2.659973 7.09201,-2.894989c0.699997,-0.231995 3.873001,-1.445007 4.572998,-1.72699c0.699997,-0.279022 2.145996,-0.652008 1.912994,-2.287018c-0.233002,-1.632996 -1.373993,-3.876984 -1.772995,-4.104004c-0.399002,-0.228973 -13.018005,-2.707001 -18.150009,-4.246002c-5.132996,-1.540985 -11.011993,-4.106995 -12.131989,-4.806976c-1.12001,-0.699005 -2.378998,-1.77301 -2.939011,-1.399994s0.187012,2.333984 -0.513,3.220978c-0.699997,0.886993 -9.00499,8.817993 -11.897995,12.037018c-2.893005,3.220978 -6.205994,9.052979 -9.052002,12.645996c-2.845993,3.59198 -4.386002,7.837982 -9.052002,9.052979c-4.666,1.213013 -14.371994,0.232025 -19.830994,0.279022s-9.891998,-0.654022 -13.858002,0.046997c-3.966003,0.699005 -9.751999,1.911987 -10.592003,1.770996s-1.544998,-0.460999 -1.865997,-0.420013c-0.320999,0.041016 -1.161003,0.56601 -1.528,0.670013c-0.366997,0.105011 -1.906998,0.402008 -2.205002,0.246002c-0.296997,-0.15799 -1.521996,0.018005 -1.801994,0.156006c-0.280006,0.140991 -1.286003,0.483978 -1.452003,0.403992c-0.167,-0.082001 -0.740997,-0.660004 -1.271004,-0.660004c-0.529999,0 -2.309998,0.350006 -2.635994,0.278992c-0.327003,-0.067993 -2.450005,0.046997 -3.826004,0.046997s-2.799995,0.070007 -3.5,0.490021c-0.699997,0.419983 -1.959,0.678009 -2.519997,0.630981c-0.561005,-0.048981 -1.167,0.46701 -1.330002,0.512024c-0.164001,0.046997 -0.467003,-0.561005 -0.489998,-0.839996c-0.023003,-0.279022 0.933998,-1.959015 1.422997,-2.893005c0.488998,-0.934021 0.256004,-1.025024 1.330002,-1.891022c1.073997,-0.862976 1.236,-0.978973 1.726997,-1.375c0.490005,-0.39798 0.886002,-0.653992 0.840004,-0.747986c-0.047005,-0.09201 -0.315002,-0.049011 -0.630005,0.093994c-0.314995,0.144989 -2.403,0.957001 -2.962997,1.307007c-0.559998,0.35199 -1.68,1.188995 -2.193001,1.656006c-0.513,0.46698 -1.237,1.144989 -1.400002,0.957001c-0.163994,-0.188019 -0.448997,-1.44101 -0.419998,-1.72702c0.028999,-0.286987 1.330002,-4.198975 1.563004,-4.597992c0.232994,-0.395996 0.536995,-1.071991 1.027,-1.515991c0.489998,-0.442993 -0.139999,-0.701019 -0.537003,-0.373016c-0.396004,0.326019 -1.515999,0.725006 -1.609001,1.002014c-0.094002,0.281006 -0.396996,-0.699005 -0.186996,-1.119019s0.723,-1.050995 1.027,-1.491974c0.302994,-0.443024 1.002998,-1.098022 1.329994,-1.307007c0.327003,-0.210999 -0.839996,-0.420013 -1.282997,-0.281006c-0.443001,0.140991 -1.190002,-0.067993 -0.910004,-0.46701c0.280006,-0.394989 2.426003,-2.728973 3.033005,-3.03299c0.607002,-0.303009 3.593002,-1.910004 3.918999,-2.006012c0.325996,-0.093994 1.072998,-0.138977 1.330002,-0.231995c0.255997,-0.093994 2.986,-1.958984 4.338997,-2.311005c1.354004,-0.349976 3.43,-0.302979 3.966003,-0.116974c0.536995,0.188995 2.123001,0.280975 2.565994,0.001984c0.443001,-0.278992 1.330002,-1.890991 1.890007,-2.028992c0.559998,-0.140991 5.319,-1.26001 6.928993,-1.562012c1.609001,-0.304993 6.952003,-1.518005 8.235001,-1.561981c1.283005,-0.047028 6.579002,0.067993 7.068993,0.138977c0.490005,0.070007 2.753006,0.143005 2.916016,0.117004c0.164001,-0.02298 1.166992,-0.231995 1.28299,-0.350006c0.117004,-0.116974 -3.918991,-0.746002 -7.814995,-1.073975c-3.896004,-0.326019 -8.889,-0.90802 -12.318001,-1.049011c-3.429001,-0.140991 -9.262001,0.140991 -11.245003,0.979004c-1.982994,0.839996 -4.339996,1.679993 -4.852997,1.632996c-0.514,-0.046997 -1.282997,0.46701 -1.843002,0.583984s-1.912994,0.094025 -2.565994,-0.067993c-0.653,-0.164001 -1.68,-0.725006 -2.123001,-0.700989s-2.496002,-0.02301 -3.383003,0.700989c-0.886002,0.722992 -1.562996,0.90802 -1.935997,1.096008c-0.374001,0.187988 -1.359001,0.13501 -1.394005,-0.05899c-0.034996,-0.19101 0.280006,-1.400024 0.507004,-1.785004s1.260002,-2.781006 1.487,-3.078003c0.227997,-0.299011 0.542,-1.330017 0.699997,-1.52301c0.158005,-0.190979 0.403,-1.083984 0.595001,-1.43399c0.192001,-0.35199 0.487,-0.972992 0.419998,-1.121002s-1.521996,0.402008 -1.661995,0.367004c-0.139999,-0.035004 -0.963005,0.665985 -1.260002,0.804993c-0.296997,0.140991 -1.161003,0.085999 -1.236,-0.079987c-0.074997,-0.166016 0.710999,-1.824005 0.886002,-2.053009c0.174995,-0.230011 1.353996,-1.014008 1.492996,-1.167999c0.139999,-0.153992 1.062004,-1.195007 1.120003,-1.39801c0.057999,-0.204987 0.209999,-0.794983 0.093002,-0.93399c-0.117004,-0.140991 -1.709,-0.571991 -1.773003,-0.839996c-0.064003,-0.27002 2.566002,-3.731995 4.899002,-5.039001c2.333,-1.308014 3.078995,-1.681 3.311996,-2.054016c0.233002,-0.373993 0.233002,-1.681 1.213005,-2.191986c0.979996,-0.514008 2.659996,-0.934998 3.172997,-1.354004c0.513,-0.42099 0.390999,-0.781006 0.980003,-1.118988c0.588997,-0.33902 11.197998,-0.888 17.777,-0.279999c6.578995,0.605988 11.198006,0.372986 14.836998,-2.893005c3.639999,-3.268005 6.718994,-11.524994 4.619003,-16.563995c-2.100006,-5.039001 1.119995,-2.56601 -4.152008,-5.926025c-5.272995,-3.358978 -9.658997,-12.877991 -9.938995,-15.116974c-0.279999,-2.240021 -1.353004,0.140991 -4.152,-2.894012s-8.864998,-22.115997 -9.705002,-25.615997c-0.839996,-3.499008 0.093002,-5.925995 0.466003,-6.484009c0.374001,-0.561996 -1.300003,-2.314987 -1.68,-4.292999c-0.379005,-1.978989 0.232994,-14.931992 1.212997,-18.757996c0.979004,-3.826004 5.786003,-14.791 6.859001,-16.237991c1.072998,-1.446014 1.658997,-1.630005 1.82,-1.912003c0.159996,-0.283005 -0.419998,-2.800003 0.373001,-8.725998c0.792999,-5.92601 4.666,-12.599014 5.179001,-13.485001c0.513,-0.886002 0.653,-1.306 0.699997,-1.726013c0.147003,-1.322998 -2.347,-3.332001 -2.706001,-4.945999c-0.559998,-2.519989 -0.419998,-3.220001 -0.373001,-3.825989c0.046005,-0.606003 -0.653,-2.041 -1.632996,-2.520004s-4.386002,2.753006 -10.592003,4.432999s-11.041,0.735001 -12.411995,0.746994c-1.370003,0.012009 -18.943001,7.838013 -26.456001,12.645004c-7.512001,4.806 -13.718002,8.818008 -14.838001,9.378998c-1.120003,0.559998 -4.666,6.346008 -5.739002,6.812012c-1.072998,0.466995 -1.632999,1.119995 -1.399998,1.72699c0.232998,0.606003 0.559998,1.865997 0.84,2.380005c0.279999,0.513 0.933998,0.856995 0.699997,1.399002c-0.232998,0.542999 -1.119999,0.419998 -1.354,0.326996c-0.232998,-0.093994 -1.306,-1.072998 -1.632999,-1.167007c-0.327,-0.092987 -1.959999,-0.699997 -2.239998,-1.165985c-0.280003,-0.46701 -0.747002,-0.327011 -1.400002,-0.980011c-0.653,-0.653 -6.532001,0.980011 -8.584999,0.514008c-2.053001,-0.46701 -5.646,-1.727005 -5.926001,-2.286011c-0.280001,-0.560989 -0.98,-0.886993 -1.306999,-0.699997s-0.280001,1.91301 0.187,2.893005c0.466999,0.979996 1.613998,2.360992 1.493,2.707001c-0.121,0.345001 -0.902,0.110001 -1.26,-0.094009c-0.358,-0.203995 -6.346001,-6.718994 -6.672001,-8.817993c-0.326,-2.098999 -0.325001,-2.406998 -0.513,-2.520004c-0.188,-0.112991 -3.265999,-0.093994 -6.393,-6.531998c-3.125999,-6.438995 -3.218999,-8.959 -2.473,-12.645996c0.747,-3.686005 -1.104,-5.925995 -0.164,-8.462997c1.33,-3.587006 6.922998,-3.843002 10.935999,-5.757004c4.013,-1.912003 12.999998,-8.625992 17.643,-21.101997c4.371002,-11.744003 4.488003,-15.457001 4.403999,-16.814003c-0.052998,-0.840004 -1.265999,-4.639 -0.810997,-7.775002c0.267998,-1.848999 8.386997,-8.811996 11.337997,-13.484001c2.783001,-4.403999 9.985004,-10.591995 11.059002,-11.290993c1.072998,-0.700005 1.848999,-1.23201 2.099998,-1.447006c0.285995,-0.243996 0.187004,-2.612 0.513,-3.639c0.327003,-1.027 1.212997,-2.054001 1.633003,-2.333c0.43,-0.286995 1.497993,-0.583 1.853996,-1.061996zm142.172005,79.816002c0.139999,-1.096008 -0.222,-10.545013 -0.805008,-10.988007c-0.582993,-0.442993 -4.164993,4.444 -4.970001,5.845001c-0.804993,1.399002 -3.289001,5.319 -3.394989,6.893997c-0.104004,1.574997 -0.38501,4.164001 1.014999,5.564011c1.399994,1.398987 4.93399,3.429993 5.423996,3.533997c0.490005,0.104996 0.804993,-0.559998 1.050003,-1.399002c0.244995,-0.839005 0.909988,-4.619003 1.050003,-5.738998c0.139999,-1.121002 0.48999,-2.613998 0.630997,-3.710999zm-12.564011,-45.142006c-0.828003,-0.699997 -7.768997,3.220001 -9.27301,6.438004c-1.50499,3.220001 -4.059998,7.103996 -2.868988,10.709c1.188995,3.603996 4.899002,5.423996 7.733002,5.493996c2.834991,0.069 7.418991,2.064003 9.658997,2.345001c2.23999,0.278999 3.429001,0.979004 3.884003,0.385002s-1.295013,-11.197998 -2.345001,-13.193001c-1.050003,-1.993996 -2.415009,-5.307999 -2.822998,-5.914001c-0.40799,-0.605995 -3.136993,-5.564995 -3.966003,-6.264z" id="Body"/>
 </g>
</svg>
